
        <svg xmlns="http://www.w3.org/2000/svg" xmlns:xlink="http://www.w3.org/1999/xlink" version="1.1" width="3153.846153846154" 
        height="2253.846153846154" viewBox="0 0 3153.846153846154 2253.846153846154">
			
			<g transform="scale(7.6923076923076925) translate(10, 10)">
				<defs id="SvgjsDefs7649"></defs><g id="SvgjsG7650" featureKey="rootContainer" transform="matrix(1,0,0,1,0,0)" fill="none"><rect xmlns="http://www.w3.org/2000/svg" width="390" height="273" rx="10" ry="10"></rect></g><g id="SvgjsG7651" featureKey="symbolFeature-0" transform="matrix(0.398964259727709,0,0,0.398964259727709,45.689672374187225,-53.21683294943297)" fill="#323232"><path xmlns="http://www.w3.org/2000/svg" d="M294.48,332.09c6.83,0,10.31-7.7,10.31-13.56s-3.48-13.56-10.31-13.56-10.31,7.7-10.31,13.56,3.48,13.56,10.31,13.56Z"></path><path xmlns="http://www.w3.org/2000/svg" d="M539.71,333.14c-8.41-31.39-23.79-60.47-48.41-82.1-24.75-24.44-48.92-53.02-84.39-61.04-7.92-1.22-25.35-6.64-31.62-1.45-9.98-6.22-23.39-4.26-34.78-5.03-32.32-.28-58.51,21.05-78.05,44.85-40.44,46.56-54.99,127.64-56.15,188.04,2.48,80.41,84.8,137.06,158.07,149.06,43.29,6.73,80.79-22.29,112.24-48.41,27.23-23.01,47.74-45.73,56.25-81.36,8.66-33.09,15.51-68.8,6.86-102.57Zm-26.81,90.2c-8.08,56.69-55.08,103.09-112.08,109.69-30.63,1.26-60.07-9.95-89.28-17.72-38.33-9.2-65.64-43.15-76.03-79.97-18.55-74.32-3.67-141.85,50.34-197.41,17.13-18.74,41.92-27.43,67.04-25.05,6.96-.21,14.79,2.16,21.19-1.3,4.48,5.35,12.25,3.58,18.4,5.07,12.15,1.24,24.3,2.51,36.1,5.85,34.77,13.59,60.69,45.75,76.39,78.76,17.93,41.1,15.11,78.98,7.95,122.09Z"></path><path xmlns="http://www.w3.org/2000/svg" d="M418.88,332.04c6.8,0,10.27-7.67,10.27-13.51s-3.47-13.51-10.27-13.51-10.27,7.67-10.27,13.51,3.47,13.51,10.27,13.51Z"></path><path xmlns="http://www.w3.org/2000/svg" d="M461.11,368.23c-6.87,2.52-9.26,11-13.4,16.5-18.66,33.09-40.22,42.04-77.25,37.26-41.9-3-42.38-10.89-74.8-29.9-9.44-3.38-15.1,9.21-12.84,16.89,1.59,5.43,7.09,10.58,13.41,15.29-5.98,7-8.2,17.24-8.82,26.41-2.73,19.09,7.65,41.5,28.74,43.18,18.09,2.4,31.61-13.27,41.71-26.15,3.85-6.05,10.13-11.69,13.67-18.22,31.87,2.38,58.81-.96,77.32-30.49,7.11-10.61,12.09-22.53,19.79-32.76,4.5-6.07,1.47-19.12-7.52-18.02Zm-137.54,97.96c-14.41,2.36-16.82-9.08-12.55-20.32,5.35-2.65,11.72,.01,17.44-1.29,.67-.16,1.3-.39,1.9-.66,4.63,1.42,9.38,2.45,14.19,3.21-5.69,7.95-11.9,15.42-20.97,19.06Z"></path></g><g id="SvgjsG7652" featureKey="nameFeature-0" transform="matrix(1.9373406583846682,0,0,1.9373406583846682,16.280306942839093,174.00601861021383)" fill="#323232"><path d="M9.12 36.04 c0.08 -0.12 0.2 -0.24 0.28 -0.32 c0.16 -0.2 0.24 -0.4 0.28 -0.6 c0.04 -0.84 0.08 -1.64 0.08 -2.44 s0 -1.56 0.04 -2.36 c0 -0.44 0.08 -0.88 0.12 -1.32 c0 -0.12 0 -0.24 0.04 -0.36 c0.28 -0.96 0.32 -0.92 1.32 -1.12 l0.36 0 c0.2 0.04 0.44 0.08 0.64 0.08 s0.4 -0.04 0.56 -0.08 c0.12 0 0.28 0.08 0.32 0.2 c0.16 0.52 0.32 1 0.28 1.56 c-0.04 0.36 0 0.76 0 1.12 c0 1.16 -0.08 2.28 -0.2 3.44 c-0.04 0.16 -0.08 0.36 -0.08 0.52 c0 0.72 -0.2 1.4 -0.4 2.08 l-0.24 0.84 c-0.24 0.2 -0.44 0.4 -0.64 0.6 c-0.2 0.16 -0.36 0.36 -0.52 0.56 c-0.12 0.16 -0.24 0.32 -0.48 0.4 c-0.16 0.04 -0.28 0.2 -0.44 0.28 c-0.2 0.12 -0.44 0.2 -0.68 0.2 c-0.44 -0.04 -0.88 -0.04 -1.32 -0.04 c-0.12 0 -0.2 0 -0.32 -0.04 c-0.4 -0.08 -0.84 -0.12 -1.28 -0.12 c-0.12 0 -0.24 -0.04 -0.36 -0.08 c-0.28 -0.04 -0.52 -0.16 -0.8 -0.2 c-0.24 -0.04 -0.44 -0.08 -0.64 -0.28 c-0.08 -0.08 -0.2 -0.12 -0.32 -0.2 c-0.16 -0.08 -0.36 -0.16 -0.52 -0.2 c-0.16 -0.08 -0.28 -0.16 -0.36 -0.28 c-0.2 -0.32 -0.48 -0.56 -0.72 -0.76 c-0.12 -0.16 -0.12 -0.32 -0.12 -0.44 c-0.04 -0.28 -0.12 -0.52 -0.24 -0.8 c-0.16 -0.36 -0.28 -0.72 -0.4 -1.08 c-0.28 -0.8 -0.44 -1.64 -0.4 -2.52 l0 -4.36 c0 -0.52 -0.04 -1.08 -0.04 -1.6 c0 -0.8 0 -1.56 0.08 -2.36 c0.04 -0.56 0.08 -1.16 -0.04 -1.76 l0 -0.44 c0.08 -0.8 0.08 -1.6 0.2 -2.4 c0.08 -0.36 0.12 -0.72 0.2 -1.08 c0.12 -0.32 0.16 -0.64 0.2 -0.96 c0.04 -0.44 0.12 -0.84 0.24 -1.28 c0.08 -0.36 0.16 -0.72 0.16 -1.08 c0.04 -0.24 0.12 -0.48 0.28 -0.68 c0.16 -0.24 0.32 -0.44 0.4 -0.68 c0.04 -0.08 0.12 -0.16 0.2 -0.24 c0.4 -0.32 0.84 -0.64 1.28 -0.96 c0.08 -0.04 0.16 -0.08 0.2 -0.08 c0.32 0 0.6 -0.12 0.88 -0.12 c0.72 -0.08 1.44 -0.24 2.2 -0.24 c0.44 -0.08 0.88 0.08 1.32 0.08 c0.04 0 0.08 0.04 0.12 0.04 c0.28 0.2 0.6 0.28 0.88 0.4 c0.32 0.2 0.64 0.36 0.84 0.72 c0.08 0.16 0.24 0.28 0.4 0.4 s0.28 0.28 0.32 0.48 c0.04 0.28 0.16 0.52 0.32 0.72 c0.16 0.32 0.28 0.64 0.32 1 c0.04 0.48 0.16 0.96 0.12 1.44 c0 0.12 0.04 0.24 0.08 0.36 l0 0.24 c-0.16 0.48 -0.04 1 -0.08 1.52 c-0.04 0.88 -0.04 1.76 -0.08 2.64 c0 0.56 -0.12 1.12 -0.24 1.68 c-0.04 0.12 -0.08 0.2 -0.12 0.32 c-0.08 0.12 -0.12 0.16 -0.24 0.2 c-0.44 0.08 -0.84 0.16 -1.32 0.08 c-0.36 -0.04 -0.76 -0.04 -1.16 -0.16 c-0.16 -0.08 -0.24 -0.16 -0.28 -0.4 c0 -0.12 0 -0.24 0.04 -0.36 c0 -0.28 0.04 -0.52 0.08 -0.8 c0.12 -0.84 0.2 -1.64 0.2 -2.48 l0 -2.56 c0 -0.72 -0.2 -1.32 -0.56 -1.88 c-0.2 -0.32 -0.52 -0.52 -0.92 -0.52 c-0.52 0 -1.08 0.04 -1.6 0.16 c-0.08 0 -0.2 0.04 -0.28 0.12 c-0.28 0.28 -0.56 0.6 -0.68 1 c-0.12 0.48 -0.28 0.96 -0.24 1.44 c0 0.04 0 0.12 -0.04 0.16 c-0.16 0.68 -0.24 1.36 -0.32 2.04 c-0.04 0.32 -0.12 0.68 -0.12 1 l0 0.68 c-0.04 0.24 -0.08 0.52 0 0.8 l0 0.44 c-0.04 0.32 -0.08 0.68 -0.08 1 c0 0.52 -0.04 1 -0.12 1.48 c-0.04 0.12 -0.04 0.24 0 0.36 c0.08 0.4 0.08 0.84 0 1.24 c0 0.16 0 0.32 0.04 0.52 c0 0.28 0.04 0.56 0.04 0.88 c0 0.36 0 0.72 -0.04 1.08 c0 0.32 0 0.64 -0.04 0.96 l0 0.36 c0.04 0.48 0.04 0.96 0.04 1.4 c0.04 0.64 0.12 1.28 0.4 1.88 c0.12 0.32 0.24 0.68 0.4 1 c0.08 0.24 0.24 0.36 0.44 0.48 c0.44 0.28 0.96 0.36 1.48 0.4 c0.44 0.04 0.92 0.08 1.4 0.04 z M32.286 28.880000000000003 l-0.12 0.24 l0 0.44 c-0.04 1.56 -0.04 3.12 -0.08 4.68 c-0.04 1.2 -0.12 2.36 -0.2 3.56 c0 0.2 -0.08 0.4 -0.08 0.6 c-0.04 0.16 -0.12 0.24 -0.28 0.32 c-0.16 0.04 -0.32 0.08 -0.48 0.16 c-0.56 0.12 -1.08 0.16 -1.64 0 c-0.16 -0.08 -0.28 -0.2 -0.32 -0.36 c-0.04 -0.12 -0.08 -0.24 -0.08 -0.36 c-0.08 -0.68 -0.16 -1.32 -0.16 -2 c-0.08 -1.16 -0.04 -2.32 -0.08 -3.48 c-0.04 -0.96 -0.04 -1.92 -0.08 -2.84 c0 -0.12 0.04 -0.24 -0.08 -0.36 c-0.24 -0.08 -0.48 -0.04 -0.72 0 c-1.4 0.24 -2.84 0.48 -4.24 0.72 l-0.36 0.12 c-0.04 0.04 -0.12 0.12 -0.12 0.16 c-0.04 0.16 -0.04 0.28 -0.04 0.44 l-0.12 5.64 c0 0.4 -0.08 0.76 -0.12 1.12 c-0.04 0.2 0.04 0.48 -0.16 0.64 c-0.12 0.12 -0.36 0.12 -0.52 0.2 c-0.28 0.12 -0.6 0.16 -0.88 0.16 l-0.6 0 c-0.24 0 -0.44 -0.08 -0.64 -0.16 c-0.12 0 -0.2 -0.08 -0.2 -0.16 c-0.12 -0.52 -0.24 -1.04 -0.24 -1.56 c-0.04 -1.68 -0.04 -3.36 -0.04 -5.04 l0 -0.68 c-0.04 -0.2 -0.12 -0.28 -0.28 -0.28 c-0.36 0 -0.68 0.04 -1.04 0.08 c-0.68 0.04 -1.32 -0.08 -2 -0.2 c-0.08 -0.04 -0.16 -0.12 -0.2 -0.2 c-0.08 -0.36 -0.2 -0.68 -0.24 -1 c-0.04 -0.36 0 -0.64 0.04 -0.96 c0.04 -0.16 0.16 -0.28 0.32 -0.32 c0.28 -0.08 0.56 -0.12 0.88 -0.12 c0.76 -0.04 1.52 -0.2 2.24 -0.36 c0.08 0 0.16 -0.04 0.2 -0.08 c0.12 -0.24 0.08 -0.52 0.08 -0.76 l0 -6 l0 -3.16 c-0.04 -0.44 0.04 -0.88 0.24 -1.28 c0.36 -0.84 0.72 -1.68 1.12 -2.52 c0 -0.08 0.08 -0.16 0.16 -0.24 c0 -0.04 0.08 -0.04 0.08 -0.08 c0.4 -0.64 1.04 -0.96 1.56 -1.36 c0.28 -0.2 0.56 -0.32 0.92 -0.32 c0.2 -0.04 0.4 -0.08 0.6 -0.08 c0.12 -0.04 0.28 -0.04 0.4 -0.08 c0.36 -0.12 0.68 -0.2 1.04 -0.04 c0.08 0.04 0.2 0.04 0.28 0.04 c0.28 -0.12 0.52 -0.04 0.8 0 c0.44 0.12 0.92 0.28 1.28 0.56 c0.24 0.16 0.36 0.4 0.64 0.52 c0.24 0.08 0.36 0.32 0.52 0.48 c0.32 0.32 0.6 0.64 0.92 0.92 c0.24 0.24 0.44 0.52 0.64 0.8 c0.08 0.12 0.12 0.32 0.2 0.48 c0.12 0.36 0.24 0.68 0.24 1.08 c0 0.2 0.04 0.4 0.08 0.56 c0.08 0.36 0.16 0.68 0.24 1.04 c0.28 0.8 0.32 1.64 0.52 2.44 c0.12 0.64 0.12 1.24 0.12 1.88 l0 0.04 l0 2.76 c0 0.12 0 0.24 0.16 0.36 c0.84 -0.08 1.76 -0.04 2.64 -0.04 c0.12 0 0.24 0 0.36 0.04 c0.04 0 0.16 0.08 0.16 0.16 c0.04 0.28 0.12 0.6 0.16 0.92 c0.04 0.44 0 0.84 0 1.28 c0 0.16 -0.04 0.28 -0.08 0.44 s-0.16 0.28 -0.36 0.32 c-0.16 0.04 -0.28 0.04 -0.44 0.04 l-1.4 0 c-0.4 0 -0.76 0 -1.12 0.04 z M28.646 23.28 l0 -2.4 c0 -0.28 0 -0.56 -0.16 -0.84 c-0.08 -0.12 -0.08 -0.24 -0.12 -0.36 c-0.04 -0.4 -0.16 -0.76 -0.36 -1.12 l-0.24 -0.6 c-0.16 -0.52 -0.4 -1 -0.8 -1.4 c-0.24 -0.24 -0.44 -0.48 -0.68 -0.72 c-0.08 -0.08 -0.24 -0.16 -0.36 -0.2 c-0.2 -0.08 -0.44 -0.12 -0.68 -0.12 c-0.72 0.04 -1 0.28 -1.12 0.92 c-0.04 0.04 -0.04 0.08 -0.04 0.12 c0 0.32 -0.12 0.6 -0.2 0.88 c-0.12 0.36 -0.2 0.72 -0.24 1.08 c-0.04 0.28 -0.08 0.52 -0.2 0.8 c-0.2 0.56 -0.32 1.2 -0.32 1.8 c0 0.48 -0.04 0.96 -0.04 1.4 c0 0.2 0 0.4 0.04 0.6 c0.08 0.16 0.04 0.36 0.04 0.52 c-0.12 0.52 -0.12 1.04 -0.08 1.56 c0.04 0.48 0.08 0.96 0.08 1.48 c0 0.08 0 0.2 0.04 0.28 c0 0.04 0.04 0.08 0.08 0.08 c0.12 0.04 0.2 0.04 0.32 0 c0.6 -0.08 1.2 -0.16 1.8 -0.28 c0.84 -0.2 1.68 -0.32 2.48 -0.48 c0.2 0 0.36 -0.04 0.52 -0.08 s0.24 -0.12 0.24 -0.32 l0 -0.52 l0 -2.08 z M37.572 11.48 c0.6 -0.28 1.2 -0.4 1.84 -0.4 c0.16 0 0.36 0 0.56 0.04 c0.16 0.04 0.24 0.12 0.28 0.28 c0.08 0.16 0.12 0.28 0.16 0.44 c0.08 0.36 0.12 0.72 0.2 1.08 c0.04 0.12 0.08 0.24 0.12 0.4 c0.08 0.12 0.16 0.24 0.2 0.36 c0.16 0.68 0.36 1.32 0.52 2 c0.12 0.4 0.24 0.8 0.44 1.2 c0.28 0.56 0.56 1.12 0.84 1.72 c0.24 0.52 0.52 1.04 0.76 1.6 c0.32 0.64 0.6 1.32 0.92 2 c0.12 0.28 0.32 0.56 0.48 0.88 c0.52 0.92 0.92 1.88 1.2 2.92 c0.04 0.2 0.12 0.4 0.2 0.6 c0.44 1.04 0.88 2.04 1.32 3.04 c0.16 0.32 0.32 0.6 0.52 0.88 c0.24 0.32 0.48 0.68 0.68 1.04 c0.12 0.24 0.28 0.4 0.4 0.6 c0.04 0.04 0.08 0.04 0.12 0.08 c0.04 0 0.12 -0.08 0.12 -0.16 l0 -0.72 l0 -19.72 l0 -0.72 c0 -0.08 0.04 -0.16 0.08 -0.24 c0.76 -0.2 1.52 -0.2 2.28 -0.2 c0.08 0 0.16 0.04 0.28 0.04 c0.36 0.12 0.48 0.12 0.52 0.6 c0.08 0.88 0.04 1.76 0.04 2.64 l0 2.84 c0.04 0.28 0 0.56 0 0.84 c0 0.56 0.04 1.12 0 1.72 c0 0.56 0.04 1.16 0 1.76 l0 1.68 l0 1.8 l0 2.2 c0 0.8 -0.04 1.64 -0.04 2.44 c0 0.36 0 0.68 -0.04 1 c0 1.44 0 2.84 -0.04 4.28 c0 0.52 -0.04 1.04 -0.08 1.56 l0 0.28 c-0.04 0.52 0.12 0.96 0.6 1.24 c0.24 0.12 0.32 0.28 0.32 0.52 c0.04 0.12 0.04 0.28 0.04 0.4 c0 0.16 -0.08 0.24 -0.16 0.32 c-0.28 0.2 -0.48 0.52 -0.68 0.8 c-0.08 0.16 -0.16 0.28 -0.28 0.4 c-0.24 0.2 -0.48 0.32 -0.76 0.28 c-0.12 -0.04 -0.2 0 -0.28 0 c-0.28 0 -0.48 -0.12 -0.64 -0.32 c-0.2 -0.24 -0.44 -0.48 -0.64 -0.72 c-0.16 -0.16 -0.28 -0.36 -0.36 -0.52 c-0.28 -0.6 -0.64 -1.2 -1 -1.72 c-0.2 -0.28 -0.4 -0.56 -0.6 -0.8 c-0.28 -0.24 -0.52 -0.56 -0.72 -0.88 c-0.16 -0.2 -0.32 -0.4 -0.44 -0.64 c-0.12 -0.16 -0.24 -0.32 -0.36 -0.52 c-0.2 -0.44 -0.44 -0.84 -0.72 -1.2 s-0.52 -0.76 -0.72 -1.16 c-0.32 -0.56 -0.6 -1.12 -0.84 -1.72 c-0.12 -0.44 -0.32 -0.84 -0.52 -1.24 c-0.36 -0.76 -0.68 -1.56 -0.92 -2.36 c-0.12 -0.44 -0.32 -0.84 -0.52 -1.24 c-0.48 -0.88 -0.92 -1.72 -1.28 -2.64 c-0.04 -0.12 -0.12 -0.24 -0.2 -0.36 l-0.04 0 l-0.08 0 l0 0.56 l0 7.48 c-0.04 2 -0.04 4.04 -0.08 6.08 c0 0.76 -0.04 1.52 -0.16 2.28 c-0.04 0.16 -0.04 0.32 -0.04 0.48 c-0.04 0.2 -0.16 0.36 -0.36 0.44 c-0.52 0.2 -1.04 0.24 -1.6 0.16 c-0.16 0 -0.36 -0.08 -0.52 -0.12 c-0.12 -0.04 -0.16 -0.12 -0.16 -0.24 c-0.04 -0.12 -0.04 -0.24 -0.08 -0.36 c0 -0.16 0 -0.32 -0.04 -0.48 c-0.08 -0.64 -0.12 -1.28 -0.16 -1.92 l0 -0.96 c-0.04 -0.4 -0.04 -0.8 -0.04 -1.24 l0 -20.28 c0 -0.44 0.04 -0.88 -0.08 -1.32 c-0.04 -0.08 0 -0.2 0.04 -0.28 c0.12 -0.28 0.16 -0.56 0.2 -0.88 z M68.62400000000001 14.559999999999999 c-1.08 -0.2 -2.2 -0.2 -3.32 -0.16 c-0.44 0.04 -0.56 -0.04 -0.76 -0.44 c-0.2 -0.44 -0.24 -0.92 -0.24 -1.44 c0 -0.56 0.08 -0.68 0.72 -0.92 c0.36 -0.16 0.72 -0.16 1.12 -0.2 c0.84 -0.04 1.68 0 2.52 0.04 l1.24 0 c0.56 -0.04 1.16 -0.04 1.72 -0.04 c0.08 0 0.2 0 0.28 0.04 c0.28 0.12 0.52 0.12 0.8 0.12 l2.16 0 c0.16 0 0.36 -0.04 0.52 0.04 c0 0.04 0.04 0.08 0.08 0.12 c0.04 0.44 0.12 0.84 0.16 1.28 c0 0.2 -0.04 0.4 0 0.56 c0 0.28 -0.08 0.56 -0.16 0.8 c-0.04 0.16 -0.16 0.28 -0.32 0.28 c-0.4 0.04 -0.84 0.04 -1.24 0.04 l-1.64 0 c-0.24 0 -0.36 0.12 -0.36 0.36 l0 0.6 c0 0.4 0.04 0.84 0.04 1.24 l0 6.64 c0 1.56 0.04 3.16 0 4.72 l0 6.76 c0 0.24 0 0.44 0.04 0.68 c0 0.04 0.04 0.08 0.08 0.08 c0.12 0.04 0.24 0.08 0.36 0.08 c0.56 0 1.12 0.16 1.68 0.04 l1.56 0.12 c0.08 0.04 0.16 0.04 0.24 0.04 l0.36 0.24 c0.08 0.08 0.12 0.2 0.16 0.32 c0.16 0.44 0.12 0.88 0.04 1.32 c0 0.04 -0.04 0.08 -0.04 0.12 c-0.2 0.76 -0.28 0.76 -0.96 0.68 c-0.04 0 -0.12 -0.04 -0.16 -0.04 c-0.64 0 -1.28 -0.04 -1.92 -0.08 c-0.44 0 -0.84 0.04 -1.24 0.08 c-0.24 0.04 -0.48 0.04 -0.64 0.24 c-0.4 0.12 -0.8 0.24 -1.2 0.28 c-0.36 0.04 -0.68 -0.12 -1 -0.28 c-0.08 -0.04 -0.16 -0.12 -0.24 -0.16 c-0.12 -0.04 -0.24 -0.08 -0.36 -0.08 c-0.2 0 -0.4 0.04 -0.6 0 c-0.2 0 -0.44 0 -0.64 0.08 c-0.16 0.08 -0.32 0.12 -0.52 0.12 c-0.24 0 -0.52 0.04 -0.8 0.12 c-0.48 0.12 -0.96 0.04 -1.44 -0.12 c-0.16 -0.12 -0.32 -0.28 -0.44 -0.4 c-0.04 -0.04 -0.04 -0.08 -0.04 -0.12 c0 -0.2 0.04 -0.36 0.04 -0.52 c0.04 -0.24 0.08 -0.48 0.04 -0.76 c-0.04 -0.2 0 -0.44 0.08 -0.64 c0.04 -0.24 0.24 -0.44 0.52 -0.48 c0.48 -0.04 1 -0.08 1.48 -0.12 l0.72 -0.12 s0.48 -0.08 0.72 0 c0.2 0.04 0.4 0 0.6 -0.04 c0.32 -0.04 0.36 -0.08 0.36 -0.44 l0 -1.76 c-0.04 -0.92 -0.04 -1.8 -0.04 -2.68 l0 -6.68 c0.04 -1.96 0.04 -3.92 0.08 -5.88 c0 -0.96 0 -1.92 0.08 -2.88 l0 -0.24 c0.04 -0.24 -0.08 -0.4 -0.28 -0.56 z M95.83600000000001 36.04 c0.08 -0.12 0.2 -0.24 0.28 -0.32 c0.16 -0.2 0.24 -0.4 0.28 -0.6 c0.04 -0.84 0.08 -1.64 0.08 -2.44 s0 -1.56 0.04 -2.36 c0 -0.44 0.08 -0.88 0.12 -1.32 c0 -0.12 0 -0.24 0.04 -0.36 c0.28 -0.96 0.32 -0.92 1.32 -1.12 l0.36 0 c0.2 0.04 0.44 0.08 0.64 0.08 s0.4 -0.04 0.56 -0.08 c0.12 0 0.28 0.08 0.32 0.2 c0.16 0.52 0.32 1 0.28 1.56 c-0.04 0.36 0 0.76 0 1.12 c0 1.16 -0.08 2.28 -0.2 3.44 c-0.04 0.16 -0.08 0.36 -0.08 0.52 c0 0.72 -0.2 1.4 -0.4 2.08 l-0.24 0.84 c-0.24 0.2 -0.44 0.4 -0.64 0.6 c-0.2 0.16 -0.36 0.36 -0.52 0.56 c-0.12 0.16 -0.24 0.32 -0.48 0.4 c-0.16 0.04 -0.28 0.2 -0.44 0.28 c-0.2 0.12 -0.44 0.2 -0.68 0.2 c-0.44 -0.04 -0.88 -0.04 -1.32 -0.04 c-0.12 0 -0.2 0 -0.32 -0.04 c-0.4 -0.08 -0.84 -0.12 -1.28 -0.12 c-0.12 0 -0.24 -0.04 -0.36 -0.08 c-0.28 -0.04 -0.52 -0.16 -0.8 -0.2 c-0.24 -0.04 -0.44 -0.08 -0.64 -0.28 c-0.08 -0.08 -0.2 -0.12 -0.32 -0.2 c-0.16 -0.08 -0.36 -0.16 -0.52 -0.2 c-0.16 -0.08 -0.28 -0.16 -0.36 -0.28 c-0.2 -0.32 -0.48 -0.56 -0.72 -0.76 c-0.12 -0.16 -0.12 -0.32 -0.12 -0.44 c-0.04 -0.28 -0.12 -0.52 -0.24 -0.8 c-0.16 -0.36 -0.28 -0.72 -0.4 -1.08 c-0.28 -0.8 -0.44 -1.64 -0.4 -2.52 l0 -4.36 c0 -0.52 -0.04 -1.08 -0.04 -1.6 c0 -0.8 0 -1.56 0.08 -2.36 c0.04 -0.56 0.08 -1.16 -0.04 -1.76 l0 -0.44 c0.08 -0.8 0.08 -1.6 0.2 -2.4 c0.08 -0.36 0.12 -0.72 0.2 -1.08 c0.12 -0.32 0.16 -0.64 0.2 -0.96 c0.04 -0.44 0.12 -0.84 0.24 -1.28 c0.08 -0.36 0.16 -0.72 0.16 -1.08 c0.04 -0.24 0.12 -0.48 0.28 -0.68 c0.16 -0.24 0.32 -0.44 0.4 -0.68 c0.04 -0.08 0.12 -0.16 0.2 -0.24 c0.4 -0.32 0.84 -0.64 1.28 -0.96 c0.08 -0.04 0.16 -0.08 0.2 -0.08 c0.32 0 0.6 -0.12 0.88 -0.12 c0.72 -0.08 1.44 -0.24 2.2 -0.24 c0.44 -0.08 0.88 0.08 1.32 0.08 c0.04 0 0.08 0.04 0.12 0.04 c0.28 0.2 0.6 0.28 0.88 0.4 c0.32 0.2 0.64 0.36 0.84 0.72 c0.08 0.16 0.24 0.28 0.4 0.4 s0.28 0.28 0.32 0.48 c0.04 0.28 0.16 0.52 0.32 0.72 c0.16 0.32 0.28 0.64 0.32 1 c0.04 0.48 0.16 0.96 0.12 1.44 c0 0.12 0.04 0.24 0.08 0.36 l0 0.24 c-0.16 0.48 -0.04 1 -0.08 1.52 c-0.04 0.88 -0.04 1.76 -0.08 2.64 c0 0.56 -0.12 1.12 -0.24 1.68 c-0.04 0.12 -0.08 0.2 -0.12 0.32 c-0.08 0.12 -0.12 0.16 -0.24 0.2 c-0.44 0.08 -0.84 0.16 -1.32 0.08 c-0.36 -0.04 -0.76 -0.04 -1.16 -0.16 c-0.16 -0.08 -0.24 -0.16 -0.28 -0.4 c0 -0.12 0 -0.24 0.04 -0.36 c0 -0.28 0.04 -0.52 0.08 -0.8 c0.12 -0.84 0.2 -1.64 0.2 -2.48 l0 -2.56 c0 -0.72 -0.2 -1.32 -0.56 -1.88 c-0.2 -0.32 -0.52 -0.52 -0.92 -0.52 c-0.52 0 -1.08 0.04 -1.6 0.16 c-0.08 0 -0.2 0.04 -0.28 0.12 c-0.28 0.28 -0.56 0.6 -0.68 1 c-0.12 0.48 -0.28 0.96 -0.24 1.44 c0 0.04 0 0.12 -0.04 0.16 c-0.16 0.68 -0.24 1.36 -0.32 2.04 c-0.04 0.32 -0.12 0.68 -0.12 1 l0 0.68 c-0.04 0.24 -0.08 0.52 0 0.8 l0 0.44 c-0.04 0.32 -0.08 0.68 -0.08 1 c0 0.52 -0.04 1 -0.12 1.48 c-0.04 0.12 -0.04 0.24 0 0.36 c0.08 0.4 0.08 0.84 0 1.24 c0 0.16 0 0.32 0.04 0.52 c0 0.28 0.04 0.56 0.04 0.88 c0 0.36 0 0.72 -0.04 1.08 c0 0.32 0 0.64 -0.04 0.96 l0 0.36 c0.04 0.48 0.04 0.96 0.04 1.4 c0.04 0.64 0.12 1.28 0.4 1.88 c0.12 0.32 0.24 0.68 0.4 1 c0.08 0.24 0.24 0.36 0.44 0.48 c0.44 0.28 0.96 0.36 1.48 0.4 c0.44 0.04 0.92 0.08 1.4 0.04 z M108.28200000000001 39.72 l-0.36 -0.12 s-0.24 -0.04 -0.32 0 s-0.2 0.04 -0.28 0.04 c-0.6 -0.08 -1.32 -0.24 -1.8 -0.8 c-0.04 0 -0.08 -0.04 -0.12 -0.08 c-0.64 -0.4 -1.04 -1 -1.6 -1.52 c-0.2 -0.16 -0.32 -0.36 -0.44 -0.56 c-0.08 -0.16 -0.16 -0.36 -0.2 -0.52 c-0.12 -0.28 -0.2 -0.56 -0.2 -0.84 c0.04 -0.2 -0.04 -0.4 -0.08 -0.6 c-0.08 -0.28 -0.12 -0.56 -0.2 -0.84 c-0.2 -0.68 -0.28 -1.36 -0.44 -2.04 c-0.08 -0.36 -0.08 -0.72 -0.08 -1.08 c0 -1.24 -0.04 -2.48 -0.04 -3.72 s0.04 -2.48 0.04 -3.76 l0 -1.8 c0.04 -0.28 0 -0.56 -0.16 -0.8 c-0.04 -0.08 -0.04 -0.2 -0.04 -0.32 c0.04 -0.08 0.04 -0.12 0.04 -0.2 c0.08 -0.44 0.08 -0.88 -0.04 -1.32 c-0.04 -0.2 -0.04 -0.4 0 -0.6 c0.08 -0.36 0.12 -0.68 0 -1 l0 -0.28 c0.04 -0.12 0.04 -0.2 0.08 -0.32 c0.12 -0.28 0.16 -0.6 0.16 -0.92 c0 -0.24 0.04 -0.48 0.16 -0.72 c0.2 -0.48 0.52 -0.88 0.72 -1.36 c0.04 -0.08 0.08 -0.16 0.16 -0.2 c0.4 -0.44 0.8 -0.88 1.28 -1.2 c0.32 -0.2 0.6 -0.44 0.92 -0.68 c0.16 -0.16 0.36 -0.24 0.6 -0.28 c0.32 -0.08 0.6 -0.12 0.92 -0.2 c0.16 -0.08 0.32 -0.08 0.44 -0.08 c0.16 -0.04 0.32 -0.04 0.48 -0.08 c0.12 -0.04 0.28 -0.04 0.4 0.04 c0.04 0.04 0.12 0.04 0.16 0.08 c0.2 0.12 0.44 0.16 0.68 0.16 l0.4 0 s0.28 0.04 0.4 0.16 c0.04 0.04 0.08 0.08 0.12 0.08 c0.12 0.16 0.28 0.24 0.44 0.28 c0.44 0.16 0.72 0.44 1 0.8 c0.16 0.24 0.36 0.52 0.6 0.72 c0.08 0.08 0.16 0.2 0.2 0.32 c0.12 0.28 0.24 0.52 0.32 0.84 c0.04 0.2 0.16 0.4 0.24 0.6 c0.12 0.24 0.2 0.52 0.24 0.76 c0 0.36 0.08 0.72 0.16 1.08 c0.08 0.32 0.12 0.68 0.12 1 c-0.04 0.32 0 0.64 0.12 0.92 c0.04 0.12 0.04 0.24 0.04 0.32 c0.04 0.2 0.04 0.4 -0.08 0.52 c-0.08 0.12 -0.08 0.28 -0.08 0.4 l0 0.72 l0 13.24 c0.04 0.6 -0.12 1.2 -0.36 1.76 l-0.84 1.92 c-0.08 0.12 -0.16 0.2 -0.24 0.32 c-0.36 0.52 -0.92 0.84 -1.4 1.2 c-0.2 0.16 -0.4 0.24 -0.64 0.28 c-0.12 0 -0.28 0.04 -0.4 0.04 c-0.4 0 -0.8 0.12 -1.2 0.24 z M105.28200000000001 26.52 l0 4.48 l0 0.68 c0 0.12 0 0.24 0.04 0.32 c0.16 0.28 0.2 0.56 0.24 0.84 c0.04 0.12 0.08 0.28 0.12 0.4 c0.16 0.4 0.32 0.76 0.48 1.16 c0.08 0.16 0.16 0.36 0.24 0.48 c0.28 0.32 0.56 0.64 0.8 0.92 c0.32 0.36 0.76 0.48 1.24 0.44 c0.36 -0.04 0.64 -0.16 0.8 -0.52 c0.04 -0.08 0.04 -0.16 0.08 -0.24 c0 -0.36 0.12 -0.72 0.24 -1.08 c0.08 -0.28 0.16 -0.56 0.16 -0.84 c0 -0.2 0.08 -0.4 0.12 -0.6 c0.24 -0.56 0.32 -1.16 0.36 -1.76 c0 -0.44 0 -0.84 0.04 -1.28 c0 -0.16 0 -0.32 -0.08 -0.48 c-0.04 -0.08 -0.04 -0.2 0 -0.32 c0.12 -0.52 0.08 -1.04 0.04 -1.56 c-0.08 -0.76 -0.04 -1.56 -0.04 -2.32 c0 -1.48 0.04 -2.92 0.04 -4.4 c0.04 -0.24 0.04 -0.44 -0.04 -0.68 c-0.04 -0.08 -0.04 -0.2 -0.04 -0.32 c-0.04 -0.56 -0.12 -1.12 -0.24 -1.68 s-0.24 -1.12 -0.24 -1.72 c0 -0.28 -0.12 -0.56 -0.24 -0.84 c-0.08 -0.16 -0.2 -0.28 -0.28 -0.44 c-0.08 -0.2 -0.24 -0.32 -0.44 -0.4 c-0.08 -0.08 -0.2 -0.12 -0.28 -0.16 c-0.6 -0.2 -1.12 -0.16 -1.6 0.24 c-0.28 0.24 -0.52 0.48 -0.76 0.76 c-0.16 0.12 -0.24 0.32 -0.28 0.52 c-0.08 0.4 -0.16 0.84 -0.24 1.24 l0 0.2 c0 0.2 -0.04 0.4 0 0.6 c0 0.24 -0.16 0.44 -0.2 0.68 l0 0.04 c-0.04 0.52 -0.12 1.04 -0.16 1.56 c-0.04 0.36 -0.04 0.76 0.04 1.12 c0.04 0.12 0.04 0.24 0.04 0.36 c0 1.56 -0.04 3.16 0.04 4.6 z M120.96800000000002 39.72 l-0.36 -0.12 s-0.24 -0.04 -0.32 0 s-0.2 0.04 -0.28 0.04 c-0.6 -0.08 -1.32 -0.24 -1.8 -0.8 c-0.04 0 -0.08 -0.04 -0.12 -0.08 c-0.64 -0.4 -1.04 -1 -1.6 -1.52 c-0.2 -0.16 -0.32 -0.36 -0.44 -0.56 c-0.08 -0.16 -0.16 -0.36 -0.2 -0.52 c-0.12 -0.28 -0.2 -0.56 -0.2 -0.84 c0.04 -0.2 -0.04 -0.4 -0.08 -0.6 c-0.08 -0.28 -0.12 -0.56 -0.2 -0.84 c-0.2 -0.68 -0.28 -1.36 -0.44 -2.04 c-0.08 -0.36 -0.08 -0.72 -0.08 -1.08 c0 -1.24 -0.04 -2.48 -0.04 -3.72 s0.04 -2.48 0.04 -3.76 l0 -1.8 c0.04 -0.28 0 -0.56 -0.16 -0.8 c-0.04 -0.08 -0.04 -0.2 -0.04 -0.32 c0.04 -0.08 0.04 -0.12 0.04 -0.2 c0.08 -0.44 0.08 -0.88 -0.04 -1.32 c-0.04 -0.2 -0.04 -0.4 0 -0.6 c0.08 -0.36 0.12 -0.68 0 -1 l0 -0.28 c0.04 -0.12 0.04 -0.2 0.08 -0.32 c0.12 -0.28 0.16 -0.6 0.16 -0.92 c0 -0.24 0.04 -0.48 0.16 -0.72 c0.2 -0.48 0.52 -0.88 0.72 -1.36 c0.04 -0.08 0.08 -0.16 0.16 -0.2 c0.4 -0.44 0.8 -0.88 1.28 -1.2 c0.32 -0.2 0.6 -0.44 0.92 -0.68 c0.16 -0.16 0.36 -0.24 0.6 -0.28 c0.32 -0.08 0.6 -0.12 0.92 -0.2 c0.16 -0.08 0.32 -0.08 0.44 -0.08 c0.16 -0.04 0.32 -0.04 0.48 -0.08 c0.12 -0.04 0.28 -0.04 0.4 0.04 c0.04 0.04 0.12 0.04 0.16 0.08 c0.2 0.12 0.44 0.16 0.68 0.16 l0.4 0 s0.28 0.04 0.4 0.16 c0.04 0.04 0.08 0.08 0.12 0.08 c0.12 0.16 0.28 0.24 0.44 0.28 c0.44 0.16 0.72 0.44 1 0.8 c0.16 0.24 0.36 0.52 0.6 0.72 c0.08 0.08 0.16 0.2 0.2 0.32 c0.12 0.28 0.24 0.52 0.32 0.84 c0.04 0.2 0.16 0.4 0.24 0.6 c0.12 0.24 0.2 0.52 0.24 0.76 c0 0.36 0.08 0.72 0.16 1.08 c0.08 0.32 0.12 0.68 0.12 1 c-0.04 0.32 0 0.64 0.12 0.92 c0.04 0.12 0.04 0.24 0.04 0.32 c0.04 0.2 0.04 0.4 -0.08 0.52 c-0.08 0.12 -0.08 0.28 -0.08 0.4 l0 0.72 l0 13.24 c0.04 0.6 -0.12 1.2 -0.36 1.76 l-0.84 1.92 c-0.08 0.12 -0.16 0.2 -0.24 0.32 c-0.36 0.52 -0.92 0.84 -1.4 1.2 c-0.2 0.16 -0.4 0.24 -0.64 0.28 c-0.12 0 -0.28 0.04 -0.4 0.04 c-0.4 0 -0.8 0.12 -1.2 0.24 z M117.96800000000002 26.52 l0 4.48 l0 0.68 c0 0.12 0 0.24 0.04 0.32 c0.16 0.28 0.2 0.56 0.24 0.84 c0.04 0.12 0.08 0.28 0.12 0.4 c0.16 0.4 0.32 0.76 0.48 1.16 c0.08 0.16 0.16 0.36 0.24 0.48 c0.28 0.32 0.56 0.64 0.8 0.92 c0.32 0.36 0.76 0.48 1.24 0.44 c0.36 -0.04 0.64 -0.16 0.8 -0.52 c0.04 -0.08 0.04 -0.16 0.08 -0.24 c0 -0.36 0.12 -0.72 0.24 -1.08 c0.08 -0.28 0.16 -0.56 0.16 -0.84 c0 -0.2 0.08 -0.4 0.12 -0.6 c0.24 -0.56 0.32 -1.16 0.36 -1.76 c0 -0.44 0 -0.84 0.04 -1.28 c0 -0.16 0 -0.32 -0.08 -0.48 c-0.04 -0.08 -0.04 -0.2 0 -0.32 c0.12 -0.52 0.08 -1.04 0.04 -1.56 c-0.08 -0.76 -0.04 -1.56 -0.04 -2.32 c0 -1.48 0.04 -2.92 0.04 -4.4 c0.04 -0.24 0.04 -0.44 -0.04 -0.68 c-0.04 -0.08 -0.04 -0.2 -0.04 -0.32 c-0.04 -0.56 -0.12 -1.12 -0.24 -1.68 s-0.24 -1.12 -0.24 -1.72 c0 -0.28 -0.12 -0.56 -0.24 -0.84 c-0.08 -0.16 -0.2 -0.28 -0.28 -0.44 c-0.08 -0.2 -0.24 -0.32 -0.44 -0.4 c-0.08 -0.08 -0.2 -0.12 -0.28 -0.16 c-0.6 -0.2 -1.12 -0.16 -1.6 0.24 c-0.28 0.24 -0.52 0.48 -0.76 0.76 c-0.16 0.12 -0.24 0.32 -0.28 0.52 c-0.08 0.4 -0.16 0.84 -0.24 1.24 l0 0.2 c0 0.2 -0.04 0.4 0 0.6 c0 0.24 -0.16 0.44 -0.2 0.68 l0 0.04 c-0.04 0.52 -0.12 1.04 -0.16 1.56 c-0.04 0.36 -0.04 0.76 0.04 1.12 c0.04 0.12 0.04 0.24 0.04 0.36 c0 1.56 -0.04 3.16 0.04 4.6 z M133.77400000000003 28.439999999999998 c-0.12 0.12 -0.2 0.32 -0.28 0.48 c-0.16 0.16 -0.32 0.28 -0.56 0.28 s-0.44 0 -0.68 0.04 c-0.04 0.08 -0.08 0.16 -0.08 0.24 l0 0.84 l0 9.04 c0 0.32 -0.04 0.6 -0.04 0.92 c0 0.08 -0.12 0.2 -0.2 0.2 c-0.88 0.16 -1.76 0.24 -2.56 0.2 c-0.24 -0.04 -0.48 -0.12 -0.68 -0.2 c-0.24 -0.28 -0.28 -0.6 -0.28 -0.88 c0 -0.6 -0.04 -1.24 -0.04 -1.84 l0 -9.64 l0 -10.12 c0.04 -0.92 0.08 -1.88 0.08 -2.8 c0.04 -0.96 0.08 -1.88 0.12 -2.84 c0 -0.64 0.08 -1.28 0.16 -1.88 c0 -0.24 0.12 -0.36 0.36 -0.4 c0.2 -0.04 0.36 -0.12 0.56 -0.16 c0.64 -0.2 1.32 -0.12 1.96 0.08 c0.08 0.04 0.16 0.12 0.2 0.24 c0 0.08 0.04 0.16 0.04 0.24 c0.08 0.84 0.16 1.64 0.16 2.48 c0 0.68 0.04 1.36 0.12 2.08 c0.04 0.24 0.04 0.52 0.04 0.8 l0 8.08 c0 0.24 0 0.48 0.04 0.72 c0 0.04 0.04 0.08 0.08 0.12 c0.04 0 0.08 -0.04 0.08 -0.04 c0.08 -0.08 0.16 -0.16 0.2 -0.28 c0.68 -1 1.32 -2.04 1.84 -3.12 c0.24 -0.48 0.44 -0.96 0.6 -1.48 c0.2 -0.44 0.4 -0.88 0.52 -1.4 c0.04 -0.12 0.16 -0.28 0.24 -0.4 c0.48 -0.64 0.84 -1.32 1.4 -1.88 c0.16 -0.2 0.28 -0.48 0.4 -0.72 c0.08 -0.08 0.08 -0.2 0.12 -0.32 c0 -0.12 0 -0.28 0.04 -0.4 c0.12 -0.2 0.24 -0.36 0.4 -0.52 c0.28 -0.24 0.52 -0.52 0.6 -0.88 c0 -0.04 0.04 -0.08 0.08 -0.16 c0.08 -0.12 0.16 -0.2 0.32 -0.2 c0.28 0 0.56 -0.08 0.8 -0.2 c0.08 -0.04 0.16 -0.08 0.2 -0.08 c0.2 0 0.24 0.16 0.36 0.24 c0.2 0.16 0.4 0.32 0.64 0.36 s0.44 0.2 0.64 0.32 c0.16 0.4 0.28 0.8 0.44 1.16 c0.16 0.28 0.08 0.48 -0.08 0.68 c-0.08 0.12 -0.2 0.2 -0.28 0.32 s-0.2 0.2 -0.28 0.32 c-0.12 0.12 -0.2 0.24 -0.24 0.44 c-0.08 0.36 -0.24 0.72 -0.44 1.04 c-0.12 0.16 -0.2 0.32 -0.28 0.52 c-0.12 0.32 -0.32 0.56 -0.6 0.76 c-0.48 0.32 -0.8 0.76 -1.08 1.24 c-0.08 0.24 -0.2 0.44 -0.28 0.68 c-0.4 0.76 -0.76 1.56 -1.12 2.32 c-0.24 0.56 -0.6 1.08 -0.92 1.56 c-0.12 0.16 -0.12 0.32 -0.04 0.48 c0.28 0.72 0.68 1.4 1.08 2.04 c0.64 0.96 1.12 1.96 1.64 3 c0.32 0.64 0.68 1.24 1 1.88 c0.24 0.44 0.48 0.88 0.68 1.32 c0.4 0.84 0.92 1.6 1.6 2.24 c0.2 0.2 0.4 0.44 0.48 0.76 c0.08 0.16 0.2 0.32 0.36 0.44 c0.08 0.08 0.16 0.2 0.2 0.32 c0.16 0.4 0.32 0.72 0.56 1.04 c0.16 0.24 0.2 0.52 0.16 0.8 c0 0.08 -0.04 0.16 -0.08 0.2 c-0.32 0.24 -0.4 0.6 -0.52 0.92 c-0.52 0.24 -1 0.44 -1.52 0.64 c-0.36 0.12 -0.72 0.12 -1.04 -0.08 c-0.24 -0.2 -0.48 -0.4 -0.6 -0.68 c-0.12 -0.36 -0.28 -0.68 -0.48 -0.96 c-0.24 -0.52 -0.56 -0.96 -0.88 -1.4 c-0.68 -0.88 -1.2 -1.8 -1.72 -2.76 c-0.32 -0.68 -0.68 -1.32 -1.04 -1.96 c-0.36 -0.72 -0.72 -1.44 -1.12 -2.16 c-0.24 -0.48 -0.48 -1.04 -0.92 -1.44 c-0.16 -0.16 -0.28 -0.44 -0.4 -0.64 c-0.04 -0.08 -0.08 -0.12 -0.16 -0.2 l-0.08 0 z M156.90600000000003 14.559999999999999 c-1.08 -0.2 -2.2 -0.2 -3.32 -0.16 c-0.44 0.04 -0.56 -0.04 -0.76 -0.44 c-0.2 -0.44 -0.24 -0.92 -0.24 -1.44 c0 -0.56 0.08 -0.68 0.72 -0.92 c0.36 -0.16 0.72 -0.16 1.12 -0.2 c0.84 -0.04 1.68 0 2.52 0.04 l1.24 0 c0.56 -0.04 1.16 -0.04 1.72 -0.04 c0.08 0 0.2 0 0.28 0.04 c0.28 0.12 0.52 0.12 0.8 0.12 l2.16 0 c0.16 0 0.36 -0.04 0.52 0.04 c0 0.04 0.04 0.08 0.08 0.12 c0.04 0.44 0.12 0.84 0.16 1.28 c0 0.2 -0.04 0.4 0 0.56 c0 0.28 -0.08 0.56 -0.16 0.8 c-0.04 0.16 -0.16 0.28 -0.32 0.28 c-0.4 0.04 -0.84 0.04 -1.24 0.04 l-1.64 0 c-0.24 0 -0.36 0.12 -0.36 0.36 l0 0.6 c0 0.4 0.04 0.84 0.04 1.24 l0 6.64 c0 1.56 0.04 3.16 0 4.72 l0 6.76 c0 0.24 0 0.44 0.04 0.68 c0 0.04 0.04 0.08 0.08 0.08 c0.12 0.04 0.24 0.08 0.36 0.08 c0.56 0 1.12 0.16 1.68 0.04 l1.56 0.12 c0.08 0.04 0.16 0.04 0.24 0.04 l0.36 0.24 c0.08 0.08 0.12 0.2 0.16 0.32 c0.16 0.44 0.12 0.88 0.04 1.32 c0 0.04 -0.04 0.08 -0.04 0.12 c-0.2 0.76 -0.28 0.76 -0.96 0.68 c-0.04 0 -0.12 -0.04 -0.16 -0.04 c-0.64 0 -1.28 -0.04 -1.92 -0.08 c-0.44 0 -0.84 0.04 -1.24 0.08 c-0.24 0.04 -0.48 0.04 -0.64 0.24 c-0.4 0.12 -0.8 0.24 -1.2 0.28 c-0.36 0.04 -0.68 -0.12 -1 -0.28 c-0.08 -0.04 -0.16 -0.12 -0.24 -0.16 c-0.12 -0.04 -0.24 -0.08 -0.36 -0.08 c-0.2 0 -0.4 0.04 -0.6 0 c-0.2 0 -0.44 0 -0.64 0.08 c-0.16 0.08 -0.32 0.12 -0.52 0.12 c-0.24 0 -0.52 0.04 -0.8 0.12 c-0.48 0.12 -0.96 0.04 -1.44 -0.12 c-0.16 -0.12 -0.32 -0.28 -0.44 -0.4 c-0.04 -0.04 -0.04 -0.08 -0.04 -0.12 c0 -0.2 0.04 -0.36 0.04 -0.52 c0.04 -0.24 0.08 -0.48 0.04 -0.76 c-0.04 -0.2 0 -0.44 0.08 -0.64 c0.04 -0.24 0.24 -0.44 0.52 -0.48 c0.48 -0.04 1 -0.08 1.48 -0.12 l0.72 -0.12 s0.48 -0.08 0.72 0 c0.2 0.04 0.4 0 0.6 -0.04 c0.32 -0.04 0.36 -0.08 0.36 -0.44 l0 -1.76 c-0.04 -0.92 -0.04 -1.8 -0.04 -2.68 l0 -6.68 c0.04 -1.96 0.04 -3.92 0.08 -5.88 c0 -0.96 0 -1.92 0.08 -2.88 l0 -0.24 c0.04 -0.24 -0.08 -0.4 -0.28 -0.56 z M173.47200000000004 26.4 c0.04 -2.96 0.04 -5.92 0.04 -8.88 c0 -0.52 0.04 -1.08 0.08 -1.6 c0 -0.28 -0.04 -0.56 -0.04 -0.8 c0 -0.04 -0.04 -0.08 -0.08 -0.08 c-0.16 -0.04 -0.32 -0.04 -0.44 -0.04 l-4.44 0 l-0.72 0 c-0.12 0 -0.24 -0.04 -0.32 -0.08 c-0.08 0 -0.16 -0.08 -0.2 -0.16 c0 -0.16 -0.04 -0.28 -0.08 -0.44 c-0.24 -0.68 -0.24 -1.36 -0.16 -2.08 c0.04 -0.16 0.12 -0.32 0.16 -0.48 c0.04 -0.08 0.12 -0.16 0.2 -0.16 c0.08 -0.04 0.16 -0.04 0.24 -0.04 l0.52 0 l12.6 0 l1 0 c0.12 0 0.2 0 0.32 0.04 c0.12 0 0.2 0.04 0.24 0.16 c0.2 0.96 0.28 1.92 0.04 2.84 c-0.08 0.2 -0.2 0.32 -0.36 0.36 c-0.24 0 -0.44 0.04 -0.64 0.04 l-3.88 0 l-0.6 0 c-0.08 0.04 -0.16 0.12 -0.16 0.2 l0 0.24 c0.08 0.4 0.04 0.8 0.04 1.16 l0 19.08 c0 0.4 -0.04 0.8 -0.04 1.2 l0 1.08 l0 0.68 c-0.04 0.12 -0.12 0.24 -0.24 0.28 c-0.6 0.08 -1.2 0.16 -1.84 0.16 c-0.28 -0.04 -0.56 -0.08 -0.8 -0.16 c-0.16 -0.04 -0.24 -0.16 -0.24 -0.32 c-0.04 -0.44 -0.08 -0.88 -0.08 -1.36 c-0.08 -1.48 -0.08 -2.96 -0.08 -4.44 l0 -2.68 l0 -2 l0 -1.72 l-0.04 0 z"></path></g>
			</g>
		</svg>
	